<svg xmlns="http://www.w3.org/2000/svg" viewBox="0 0 512 512" width="512" height="512">
  <defs>
    <linearGradient id="bg" x1="0%" y1="0%" x2="100%" y2="100%"><stop offset="0%" style="stop-color:#1a1a2e"/><stop offset="100%" style="stop-color:#16213e"/></linearGradient>
    <linearGradient id="ac" x1="0%" y1="0%" x2="100%" y2="100%"><stop offset="0%" style="stop-color:#00d2ff"/><stop offset="100%" style="stop-color:#7b61ff"/></linearGradient>
    <linearGradient id="ac2" x1="100%" y1="0%" x2="0%" y2="100%"><stop offset="0%" style="stop-color:#7b61ff"/><stop offset="100%" style="stop-color:#00d2ff"/></linearGradient>
  </defs>
  <rect x="16" y="16" width="480" height="480" rx="96" fill="url(#bg)"/>
  <!-- Hub -->
  <circle cx="256" cy="256" r="36" fill="url(#ac)" opacity="0.95"/>
  <circle cx="256" cy="256" r="24" fill="#1a1a2e"/>
  <circle cx="256" cy="256" r="12" fill="url(#ac)"/>
  <!-- Nodes -->
  <circle cx="256" cy="120" r="22" fill="url(#ac2)" opacity="0.85"/><circle cx="256" cy="120" r="10" fill="#1a1a2e"/>
  <circle cx="373" cy="188" r="22" fill="url(#ac)" opacity="0.85"/><circle cx="373" cy="188" r="10" fill="#1a1a2e"/>
  <circle cx="373" cy="324" r="22" fill="url(#ac2)" opacity="0.85"/><circle cx="373" cy="324" r="10" fill="#1a1a2e"/>
  <circle cx="256" cy="392" r="22" fill="url(#ac)" opacity="0.85"/><circle cx="256" cy="392" r="10" fill="#1a1a2e"/>
  <circle cx="139" cy="324" r="22" fill="url(#ac2)" opacity="0.85"/><circle cx="139" cy="324" r="10" fill="#1a1a2e"/>
  <circle cx="139" cy="188" r="22" fill="url(#ac)" opacity="0.85"/><circle cx="139" cy="188" r="10" fill="#1a1a2e"/>
  <!-- Spokes -->
  <line x1="256" y1="220" x2="256" y2="142" stroke="url(#ac)" stroke-width="2.5" opacity="0.5"/>
  <line x1="287" y1="235" x2="351" y2="198" stroke="url(#ac)" stroke-width="2.5" opacity="0.5"/>
  <line x1="287" y1="277" x2="351" y2="314" stroke="url(#ac)" stroke-width="2.5" opacity="0.5"/>
  <line x1="256" y1="292" x2="256" y2="370" stroke="url(#ac)" stroke-width="2.5" opacity="0.5"/>
  <line x1="225" y1="277" x2="161" y2="314" stroke="url(#ac)" stroke-width="2.5" opacity="0.5"/>
  <line x1="225" y1="235" x2="161" y2="198" stroke="url(#ac)" stroke-width="2.5" opacity="0.5"/>
  <!-- Rings -->
  <circle cx="256" cy="256" r="52" fill="none" stroke="url(#ac)" stroke-width="1" opacity="0.15"/>
  <circle cx="256" cy="256" r="72" fill="none" stroke="url(#ac)" stroke-width="0.5" opacity="0.08"/>
</svg>
